<svg xmlns="http://www.w3.org/2000/svg" xml:space="preserve" style="enable-background:new 0 0 24 24" viewBox="0 0 24 24"><path d="M0 0h24v24H0z" style="fill:none"/><path fill="#8d8d8d" d="m19.6 8-2.4-2.4c-.3-.4-.9-.6-1.3-.6h-7c-.4 0-.7.3-.7.7V11c.1 0 .8.2 1 .3V6h6v3.2c0 .4.3.7.7.7h3.2v8H12c-.2.4-.3.7-.6 1h7.9c.4 0 .7-.3.7-.7V9.4c0-.7-.2-1.2-.4-1.4zm-3.5 1V6.1c.1 0 2.9 2.8 3 2.9h-3z"/><path fill="#8d8d8d" d="M7.3 12c-2.2 0-4 1.8-4 4s1.8 4 4 4 4-1.8 4-4-1.8-4-4-4zm-2.9 4c0-.7.2-1.3.6-1.8l3.7 4.4c-.4.2-.9.4-1.4.4-1.6-.1-2.9-1.4-2.9-3zm5.2 1.7L6 13.4c.4-.2.8-.4 1.3-.4 1.6 0 2.9 1.3 2.9 2.9 0 .7-.2 1.3-.6 1.8zM18.2 17v-2.5L15.7 12l-3.3 3.3v.7c0 .3 0 .6-.1 1h5.9zM13.2 11.5c0-.8-.7-1.5-1.5-1.5s-1.5.7-1.5 1.5v.3c.4.3.8.7 1.1 1.1h.3c1 .1 1.6-.6 1.6-1.4z"/></svg>